# xmcd
#
# Track frame offsets:
#	150
#	16367
#	34759
#	50760
#	65712
#	80837
#	96267
#	111789
#	124545
#	142305
#	158103
#	173020
#	189598
#
# Disc length: 2700
#
# Revision: 1
# Processed by: cddbd v1.5.1PL0 Copyright (c) Steve Scherf et al.
# Submitted via: CDex 1.50beta9
# Normalized: r0:TDELIM( - )
#
DISCID=b90a8a0d
DTITLE=Various Artist - CDX Volume 181 - February 1998
DYEAR=1998
DGENRE=Country
TTITLE0=Lila McCann - Almost Over You
TTITLE1=Matt King - A Woman's Tears
TTITLE2=The Thompson Brothers Band - Back On The Farm
TTITLE3=Jo-El Sonnier - Broken Hearted Side of New Orleans
TTITLE4=Mark Wills - I Do (Cherish You)
TTITLE5=Jim Collins - My First, Last, One and Only
TTITLE6=The Great Divide - Never Could
TTITLE7=Randy Travis - Out Of My Bones
TTITLE8=Michael Martin Murphey - Ponies
TTITLE9=T G Sheppard - She's Gettin' The Rock
TTITLE10=Faith Hill - This Kiss
TTITLE11=JD Myers - Wishin' and Waitin'
TTITLE12=Leland Martin - Long Legs Like Alan Jackson
EXTD=YEAR: 1998
EXTT0=
EXTT1=
EXTT2=
EXTT3=
EXTT4=
EXTT5=
EXTT6=
EXTT7=
EXTT8=
EXTT9=
EXTT10=
EXTT11=
EXTT12=
PLAYORDER=
